<svg width="109" height="52" viewBox="0 0 109 52" fill="none" xmlns="http://www.w3.org/2000/svg">
<path d="M108.15 45.277C107.924 43.3511 108.037 41.4252 107.585 39.6126C106.908 37.007 106.004 34.4014 104.648 32.0224C96.3998 17.2951 84.4233 6.41959 68.2663 1.88811C51.7703 -2.64336 36.1782 0.981805 23.1848 12.7636C16.6316 18.6546 11.6603 25.7916 7.81873 33.7217C7.14081 35.1944 6.4629 36.5539 5.22006 38.9329C3.75124 35.6476 2.62137 33.1553 1.49151 30.5497C1.15255 30.663 0.813588 30.663 0.361646 30.7763C0.248662 31.5693 -0.0902967 32.3623 0.0226869 33.1553C0.361645 37.1203 0.813595 41.0853 1.26554 45.0504C1.6045 47.656 1.83047 50.3749 4.65512 51.5077C7.59276 52.7539 10.0785 51.0546 11.9992 49.1287C14.5979 46.4098 16.9706 43.3511 19.2303 40.2923C19.6823 39.6126 19.2303 38.3665 19.2303 37.3469C18.2135 37.3469 16.9706 37.007 16.2927 37.4602C14.2589 38.9329 12.5641 40.7455 10.6434 42.5581C10.5304 42.2182 10.3044 41.9916 10.4174 41.8784C19.2303 16.9552 37.3081 2.11468 63.0689 4.72028C64.3118 4.83357 65.5546 5.06014 66.7975 5.51329C84.0844 11.0643 96.8518 21.8266 104.648 38.3665C105.665 40.5189 106.117 43.0112 106.795 45.3903C107.246 45.3903 107.698 45.277 108.15 45.277Z" fill="#4361EE"/>
</svg>
