<svg width="561" height="64" viewBox="0 0 561 64" fill="none" xmlns="http://www.w3.org/2000/svg">
<path d="M249.265 60.0943C310.179 59.6834 377.829 58.2042 444.307 53.7667C465.1 52.3697 485.307 50.7262 504.343 48.0144C512.836 46.7817 521.329 45.3847 528.943 43.7412C534.507 42.5086 539.193 40.8651 542.707 39.1394C551.2 35.0305 548.857 30.8396 535.971 27.799C528.357 25.9912 519.864 24.512 510.786 23.2793C485.014 19.6636 457.486 17.2805 429.664 15.3904C406.529 13.8291 382.807 13.1717 359.086 12.7608C356.157 12.6786 353.229 12.7608 350.886 12.4321C348.836 12.1855 346.493 11.446 346.493 10.9529C346.786 10.2955 349.129 9.63809 351.179 9.30938C353.229 8.98068 356.157 9.14503 358.5 9.14503C397.157 9.06285 434.35 11.1994 470.372 14.733C487.943 16.4587 505.221 18.5131 522.207 20.7319C530.993 21.8823 539.486 23.608 546.514 25.4981C561.743 29.5247 564.964 34.8662 556.179 40.2076C551.786 43.0016 544.757 45.2204 536.557 47.1104C521.622 50.4797 504.636 52.6162 487.064 54.3419C452.8 57.7112 417.364 59.6834 381.343 61.0804C338.586 62.8061 295.829 63.71 252.486 63.9566C200.943 64.2031 149.4 63.4635 99.0291 60.0943C78.822 58.7795 59.4935 56.8072 41.6292 53.8489C29.9149 51.8767 19.3721 49.6579 11.1721 46.5352C-2.00647 41.5225 -3.47075 36.2632 6.48638 30.6752C12.0507 27.5525 19.9578 25.005 29.0364 22.7041C53.0506 16.6231 81.1649 12.5143 111.036 9.22721C149.986 4.95404 190.693 2.65311 231.986 1.25611C284.993 -0.551763 338 -0.305235 391.007 1.33829C436.693 2.73529 481.793 5.11839 525.136 9.72026C530.7 10.2955 535.971 11.0351 541.243 11.7747C545.05 12.2677 547.393 13.0073 545.929 14.24C544.757 15.1439 540.95 15.4726 536.264 14.8152C509.029 11.3638 480.036 9.63809 451.043 7.91239C417.072 5.94016 382.514 4.87187 347.957 4.21446C286.457 3.14617 225.543 4.46099 165.8 8.5698C133.586 10.6242 102.543 13.8291 73.5506 18.5131C58.6149 20.8962 44.5578 23.6902 32.5506 27.2238C28.1578 28.5386 24.0578 30.0178 20.5435 31.5791C10.0007 36.4275 11.7578 41.2759 25.8149 45.3026C32.8435 47.357 41.3363 49.0827 50.122 50.644C69.4506 54.0132 91.122 55.7389 113.379 56.9716C155.55 59.3547 198.6 60.1765 249.265 60.0943Z" fill="#A1B1F7"/>
</svg>
