<svg width="92" height="30" viewBox="0 0 92 30" fill="none" xmlns="http://www.w3.org/2000/svg">
<path d="M0.89479 17.3927C0.908046 17.3396 0.934558 17.3197 0.974327 17.333C1.02735 17.333 1.07375 17.3264 1.11352 17.3131C1.00747 17.2071 0.941186 17.0679 0.914674 16.8955C0.888162 16.71 0.821881 16.5575 0.715832 16.4382C0.742344 16.3719 0.762228 16.3056 0.775485 16.2394C0.801997 16.1731 0.86165 16.1466 0.954443 16.1598C0.914674 15.8682 0.921302 15.5964 0.974327 15.3446C1.02735 15.0927 1.10689 14.8541 1.21294 14.6287C1.33224 14.4034 1.4648 14.1847 1.61062 13.9726C1.7697 13.7472 1.92214 13.5219 2.06796 13.2965C2.18726 13.27 2.26017 13.2832 2.28669 13.3363C2.3132 13.376 2.35959 13.3628 2.42587 13.2965C2.63797 13.1507 2.78379 12.9916 2.86333 12.8193C2.94286 12.6337 2.98263 12.4349 2.98263 12.2228C3.10194 11.8781 3.2345 11.5401 3.38032 11.2087C3.53939 10.864 3.71835 10.5459 3.91719 10.2542C4.11603 9.96258 4.32813 9.71071 4.55349 9.49862C4.77884 9.27326 5.02408 9.10093 5.2892 8.98163C5.47479 8.82255 5.70677 8.67673 5.98515 8.54417C6.27679 8.41161 6.58168 8.31219 6.89982 8.24591C7.23123 8.16637 7.56926 8.1266 7.91392 8.1266C8.25858 8.11335 8.57673 8.14649 8.86836 8.22602C8.93464 8.25254 8.97441 8.23928 8.98767 8.18626C9.00092 8.11998 9.03406 8.08684 9.08709 8.08684C9.7499 8.16637 10.3398 8.29893 10.8568 8.48452C11.387 8.67011 11.8377 8.9286 12.2089 9.26C12.4608 9.65769 12.6994 10.0885 12.9247 10.5525C13.1501 11.0032 13.3224 11.4804 13.4417 11.9841C13.5743 12.4746 13.6339 12.985 13.6207 13.5152C13.6074 14.0455 13.4948 14.5757 13.2827 15.106C12.8187 15.6892 12.2553 16.1598 11.5925 16.5177C10.9297 16.8624 10.2139 17.154 9.445 17.3927C8.6894 17.618 7.90066 17.8036 7.07878 17.9494C6.27016 18.0952 5.48142 18.2543 4.71256 18.4266C4.72582 18.7845 4.72582 19.169 4.71256 19.5799C4.6993 19.9776 4.65291 20.3819 4.57337 20.7929C4.50709 21.1905 4.40104 21.5816 4.25522 21.966C4.12266 22.3504 3.93708 22.7084 3.69846 23.0398C3.43334 23.0265 3.15496 23.053 2.86333 23.1193C2.58495 23.1856 2.33308 23.2519 2.10773 23.3181C2.00168 23.2519 1.89563 23.1856 1.78958 23.1193C1.69679 23.0663 1.57748 23.0331 1.43166 23.0199C1.47143 22.8608 1.43166 22.6951 1.31236 22.5228C1.20631 22.3504 1.09363 22.1847 0.974327 22.0257C0.868278 21.8533 0.795369 21.6876 0.7556 21.5286C0.729088 21.3562 0.808625 21.2038 0.994211 21.0712C0.888162 20.9784 0.835137 20.8326 0.835137 20.6338C0.888162 20.6868 0.954443 20.7133 1.03398 20.7133C1.00747 20.4747 1.03398 20.1897 1.11352 19.8583C1.20631 19.5269 1.27922 19.2021 1.33224 18.884C1.39852 18.5526 1.41178 18.2543 1.37201 17.9892C1.33224 17.7108 1.17317 17.512 0.89479 17.3927ZM6.06469 12.7397C6.01166 12.8856 5.96527 13.0181 5.9255 13.1374C5.89899 13.2435 5.86584 13.3429 5.82608 13.4357C5.78631 13.5285 5.73991 13.6213 5.68689 13.7141C5.64712 13.8069 5.60072 13.9129 5.5477 14.0322C5.57421 14.1118 5.62723 14.1714 5.70677 14.2112C5.78631 14.2509 5.83933 14.3106 5.86584 14.3901C6.05143 14.2973 6.23702 14.2311 6.4226 14.1913C6.60819 14.1383 6.79377 14.0985 6.97936 14.072C7.16495 14.0455 7.35053 14.0123 7.53612 13.9726C7.72171 13.9328 7.91392 13.8665 8.11276 13.7737C8.3116 13.6809 8.51707 13.608 8.72917 13.555C8.95453 13.4887 9.17325 13.4224 9.38535 13.3562C9.59745 13.2899 9.80292 13.217 10.0018 13.1374C10.2006 13.0446 10.3729 12.9253 10.5188 12.7795C10.3332 12.6072 10.0548 12.4547 9.68361 12.3222C9.31244 12.1896 8.90813 12.1101 8.47068 12.0836C8.04648 12.0438 7.61566 12.0703 7.1782 12.1631C6.75401 12.2559 6.38283 12.4481 6.06469 12.7397ZM16.2255 20.932C16.0797 21.4623 15.9471 21.8666 15.8278 22.145C15.7218 22.4101 15.5561 22.6885 15.3307 22.9801C15.1584 22.9536 15.0391 22.9735 14.9728 23.0398C14.9065 23.106 14.8336 23.1657 14.7541 23.2187C14.6348 23.2452 14.5486 23.2452 14.4956 23.2187C14.4426 23.1922 14.3962 23.1591 14.3564 23.1193C14.3166 23.0928 14.2636 23.0597 14.1973 23.0199C14.1443 22.9934 14.0581 22.9801 13.9388 22.9801C13.9123 22.8741 13.8792 22.7746 13.8394 22.6819C13.8129 22.5891 13.7267 22.5559 13.5809 22.5824C13.6074 22.4764 13.6141 22.3902 13.6008 22.3239C13.5875 22.2444 13.5677 22.1781 13.5412 22.1251C13.5279 22.0588 13.5146 21.9992 13.5014 21.9461C13.4881 21.8799 13.4948 21.8003 13.5213 21.7075C13.455 21.7075 13.402 21.6611 13.3622 21.5683C13.3224 21.4755 13.276 21.3828 13.223 21.29C13.2628 21.0513 13.3025 20.826 13.3423 20.6139C13.3821 20.4018 13.4285 20.203 13.4815 20.0174C13.5478 19.8318 13.6008 19.6462 13.6406 19.4606C13.6803 19.275 13.6605 19.0828 13.5809 18.884C13.6339 18.9237 13.6737 18.9171 13.7002 18.8641C13.7267 18.7978 13.7466 18.7183 13.7599 18.6255C13.7731 18.5194 13.7798 18.42 13.7798 18.3272C13.7798 18.2212 13.7731 18.135 13.7599 18.0687C13.8924 17.7241 13.9985 17.3728 14.078 17.0148C14.1708 16.6437 14.2504 16.2791 14.3166 15.9212C14.3962 15.5633 14.4757 15.212 14.5552 14.8674C14.6348 14.5227 14.7408 14.2045 14.8734 13.9129C15.0192 13.8864 15.1783 13.9063 15.3506 13.9726C15.5362 14.0256 15.6489 14.0985 15.6886 14.1913C16.0333 13.9262 16.3382 13.608 16.6033 13.2368C16.8684 12.8524 17.1402 12.4812 17.4186 12.1233C17.697 11.7654 18.0018 11.4473 18.3332 11.1689C18.6779 10.8905 19.1087 10.7248 19.6257 10.6718C19.8908 10.8706 20.1825 11.0761 20.5006 11.2882C20.832 11.487 21.1038 11.7522 21.3159 12.0836C21.4219 12.1366 21.5081 12.1962 21.5744 12.2625C21.6539 12.3155 21.7467 12.3752 21.8528 12.4415V12.6801C22.0118 12.8259 22.1378 12.9982 22.2306 13.1971C22.3366 13.3827 22.4294 13.5881 22.5089 13.8135C22.5885 14.0256 22.668 14.2443 22.7475 14.4697C22.8271 14.6818 22.9199 14.8872 23.0259 15.0861C22.9994 15.1524 22.9862 15.212 22.9862 15.265C22.9862 15.3048 22.9928 15.3512 23.006 15.4042C23.0326 15.4573 23.0524 15.5103 23.0657 15.5633C23.079 15.6163 23.079 15.6892 23.0657 15.782C23.0259 16.3653 22.8337 16.8359 22.4891 17.1938C22.1576 17.5517 21.7533 17.85 21.2761 18.0886C20.7989 18.314 20.2885 18.5062 19.745 18.6652C19.2015 18.8243 18.711 18.9966 18.2736 19.1822C18.2736 19.2353 18.2935 19.2618 18.3332 19.2618C18.3863 19.2618 18.4062 19.2949 18.3929 19.3612C18.711 19.56 18.9629 19.7191 19.1485 19.8384C19.3341 19.9577 19.5064 20.0571 19.6655 20.1367C19.8378 20.2162 20.0168 20.2891 20.2024 20.3554C20.4012 20.4084 20.673 20.4747 21.0176 20.5542C21.3623 20.6338 21.6274 20.7001 21.813 20.7531C22.0118 20.7929 22.1908 20.8326 22.3499 20.8724C22.5089 20.8989 22.668 20.9254 22.8271 20.9519C22.9994 20.9652 23.238 20.9851 23.5429 21.0116C23.6622 21.1309 23.7616 21.2767 23.8412 21.449C23.934 21.6081 23.9936 21.7738 24.0201 21.9461C24.0466 22.1052 24.0533 22.2643 24.04 22.4234C24.0268 22.5692 23.9804 22.6885 23.9008 22.7813C23.9141 22.821 23.9406 22.8409 23.9804 22.8409C24.0334 22.8277 24.0864 22.8277 24.1394 22.8409C24.0599 22.894 23.9936 22.9602 23.9406 23.0398C23.8876 23.1193 23.8346 23.1988 23.7815 23.2784C23.7285 23.3579 23.6688 23.4242 23.6026 23.4772C23.5363 23.5435 23.4435 23.5833 23.3242 23.5965C22.9132 23.7556 22.3963 23.7622 21.7732 23.6164C21.1502 23.4838 20.3614 23.232 19.407 22.8608C18.9298 22.6752 18.5387 22.5162 18.2338 22.3836C17.9422 22.2378 17.6837 22.0986 17.4583 21.966C17.2462 21.8202 17.0474 21.6678 16.8618 21.5087C16.6895 21.3496 16.4774 21.1574 16.2255 20.932ZM19.069 14.1118C18.9231 14.3239 18.7574 14.5161 18.5719 14.6884C18.3995 14.8607 18.2272 15.0397 18.0549 15.2253C17.8958 15.3976 17.75 15.5964 17.6174 15.8218C17.4849 16.0339 17.3921 16.2858 17.339 16.5774C17.803 16.5244 18.2869 16.3984 18.7906 16.1996C19.2943 15.9875 19.7715 15.7887 20.2223 15.6031C20.1692 15.1921 20.0234 14.8607 19.7848 14.6089C19.5594 14.357 19.3208 14.1913 19.069 14.1118ZM35.6325 17.0347C35.6193 17.1938 35.6325 17.3463 35.6723 17.4921C35.7121 17.6379 35.7585 17.7837 35.8115 17.9295C35.8778 18.0621 35.9374 18.2013 35.9904 18.3471C36.0435 18.4929 36.0832 18.6387 36.1097 18.7845C36.1363 18.9701 36.1363 19.1756 36.1097 19.401C36.0832 19.6131 36.0368 19.8252 35.9706 20.0373C35.9043 20.2361 35.8181 20.4217 35.7121 20.594C35.606 20.7531 35.4801 20.8724 35.3343 20.9519C35.1487 21.1905 34.9233 21.3761 34.6582 21.5087C34.3931 21.6412 34.1478 21.8003 33.9225 21.9859C33.7767 22.0787 33.611 22.145 33.4254 22.1847C33.253 22.2245 33.0741 22.2643 32.8885 22.3041C32.7427 22.3836 32.5704 22.4698 32.3715 22.5625C32.1727 22.6421 31.9672 22.7216 31.7551 22.8012C31.543 22.8674 31.3309 22.9205 31.1188 22.9602C30.9067 22.9867 30.7211 22.9934 30.562 22.9801C30.1644 23.1259 29.7733 23.2187 29.3889 23.2585C29.0177 23.3115 28.5803 23.285 28.0765 23.179C27.5993 23.2452 27.1552 23.2254 26.7443 23.1193C26.3466 23.0133 25.9887 22.8476 25.6705 22.6222C25.3656 22.3836 25.0939 22.1052 24.8553 21.7871C24.6299 21.4557 24.4443 21.111 24.2985 20.7531C24.1925 19.9975 24.219 19.3148 24.3781 18.705C24.5371 18.082 24.7625 17.512 25.0541 16.995C25.359 16.4647 25.7037 15.9809 26.0881 15.5434C26.4725 15.0927 26.8437 14.6553 27.2016 14.2311C27.2811 14.2576 27.3408 14.2576 27.3806 14.2311C27.4336 14.1913 27.48 14.1449 27.5198 14.0919C27.5595 14.0256 27.5993 13.9659 27.6391 13.9129C27.6921 13.8599 27.7517 13.8267 27.818 13.8135C27.9108 13.6146 28.0434 13.4688 28.2157 13.376C28.4013 13.27 28.5471 13.1242 28.6532 12.9386C28.7725 12.9121 28.8719 12.8723 28.9514 12.8193C29.031 12.7663 29.1039 12.7066 29.1701 12.6403C29.2497 12.574 29.3292 12.5144 29.4088 12.4614C29.4883 12.3951 29.5811 12.3487 29.6871 12.3222V12.1034C29.9257 11.9974 30.0981 11.8781 30.2041 11.7455C30.3234 11.5997 30.4626 11.4274 30.6217 11.2285C30.741 11.2153 30.8338 11.2087 30.9001 11.2087C30.9796 11.2087 31.0923 11.1954 31.2381 11.1689C31.3442 10.9833 31.4369 10.8441 31.5165 10.7513C31.6093 10.6585 31.7418 10.5591 31.9142 10.4531C32.0732 10.5326 32.2456 10.5856 32.4312 10.6121C32.63 10.6386 32.8023 10.7248 32.9482 10.8706C32.9614 11.0032 33.0012 11.1092 33.0675 11.1888C33.1337 11.2551 33.2066 11.3213 33.2862 11.3876C33.3657 11.4406 33.4386 11.5003 33.5049 11.5666C33.5844 11.6329 33.6375 11.7256 33.664 11.845C33.717 11.8582 33.7501 11.8516 33.7634 11.8251C33.7899 11.7986 33.8297 11.7919 33.8827 11.8052C33.9225 11.9908 33.9689 12.1167 34.0219 12.183C34.0749 12.236 34.1279 12.3487 34.181 12.521C34.1147 12.6536 34.0617 12.7928 34.0219 12.9386C33.9954 13.0711 33.9158 13.1706 33.7833 13.2368C33.77 13.3296 33.7965 13.3827 33.8628 13.3959C33.9291 13.3959 33.9689 13.4291 33.9821 13.4953C33.9954 13.6146 33.9755 13.7008 33.9225 13.7538C34.2406 14.2708 34.5256 14.821 34.7775 15.4042C35.0294 15.9742 35.3144 16.5177 35.6325 17.0347ZM33.147 18.9237C33.2 18.7779 33.2663 18.6586 33.3458 18.5658C33.4386 18.473 33.4917 18.3338 33.5049 18.1483C33.4386 18.0422 33.3989 17.9627 33.3856 17.9096C33.3723 17.8434 33.3657 17.7439 33.3657 17.6114C33.0741 17.2004 32.8222 16.763 32.6101 16.299C32.398 15.8218 32.1594 15.3777 31.8943 14.9668C31.8678 15.0198 31.8214 15.0728 31.7551 15.1258C31.6888 15.1789 31.6159 15.1656 31.5364 15.0861C31.5099 15.1921 31.4635 15.2717 31.3972 15.3247C31.3309 15.3645 31.258 15.3843 31.1785 15.3843C31.0989 15.3711 31.0128 15.3512 30.92 15.3247C30.8404 15.2849 30.7675 15.2385 30.7012 15.1855C30.3168 15.4904 29.9324 15.7887 29.5479 16.0803C29.1635 16.3719 28.8189 16.71 28.514 17.0944C28.4609 17.1209 28.4278 17.1342 28.4145 17.1342C28.4013 17.1209 28.3615 17.1275 28.2952 17.154C28.1892 17.4059 28.0566 17.6379 27.8976 17.85C27.7517 18.0488 27.6059 18.2543 27.4601 18.4664C27.3143 18.6785 27.1884 18.9039 27.0823 19.1425C26.9763 19.3811 26.9166 19.6595 26.9033 19.9776C27.1287 20.1632 27.3938 20.2759 27.6987 20.3156C28.0036 20.3554 28.3151 20.362 28.6333 20.3355C28.9647 20.309 29.2828 20.2692 29.5877 20.2162C29.9059 20.1499 30.1975 20.1168 30.4626 20.1168C31.0194 19.9842 31.4966 19.8119 31.8943 19.5998C32.292 19.3744 32.7095 19.1491 33.147 18.9237ZM39.6292 22.3239C39.5497 22.7746 39.3244 23.0862 38.9532 23.2585C38.7809 23.2718 38.6483 23.2651 38.5555 23.2386C38.476 23.2121 38.3898 23.179 38.297 23.1392C38.1777 23.0862 38.0717 23.053 37.9789 23.0398L37.7601 22.8807C37.7336 22.8144 37.7005 22.7481 37.6607 22.6819C37.6209 22.6156 37.5745 22.5493 37.5215 22.483C37.4155 22.3504 37.3094 22.1847 37.2034 21.9859C37.1238 21.6015 37.1106 21.2833 37.1636 21.0315C37.2166 20.7663 37.2829 20.5078 37.3624 20.256C37.389 20.1764 37.4155 20.0969 37.442 20.0174C37.4685 19.9246 37.495 19.8384 37.5215 19.7589C37.1769 19.5733 36.9184 19.3082 36.746 18.9635C36.5737 18.6188 36.4743 18.2874 36.4478 17.9693C36.4875 17.7174 36.5605 17.5186 36.6665 17.3728C36.7726 17.2137 36.8919 17.0878 37.0244 16.995C37.1702 16.9022 37.3161 16.8293 37.4619 16.7762C37.6209 16.7232 37.7734 16.6768 37.9192 16.637L38.1777 16.7365C38.297 16.8558 38.4163 16.9486 38.5356 17.0148C38.6284 16.9751 38.6881 16.9154 38.7146 16.8359C38.7543 16.7431 38.7875 16.6437 38.814 16.5376C38.8538 16.4183 38.8935 16.299 38.9333 16.1797C38.9863 16.0604 39.046 15.9411 39.1123 15.8218C39.099 15.6495 39.1255 15.4904 39.1918 15.3446C39.099 15.2783 38.9996 15.2385 38.8935 15.2253C38.867 15.2253 38.8007 15.212 38.6947 15.1855C38.5356 15.0662 38.4229 14.9668 38.3567 14.8872C38.3036 14.7944 38.2506 14.7083 38.1976 14.6287C38.118 14.4564 38.0186 14.3172 37.8993 14.2112L37.7005 14.072L37.7999 13.8731C37.8264 13.8466 37.8397 13.8135 37.8397 13.7737C37.8397 13.734 37.8132 13.6743 37.7601 13.5948C37.7336 13.4489 37.7336 13.3495 37.7601 13.2965L37.7999 13.0977C37.906 12.9518 37.959 12.8723 37.959 12.859L38.1379 12.6801C38.4031 12.6138 38.6616 12.5409 38.9134 12.4614C39.1785 12.3686 39.4437 12.2758 39.7088 12.183C39.9607 12.1034 40.2125 12.0239 40.4644 11.9444C40.7295 11.8516 40.9946 11.772 41.2598 11.7058C41.3525 11.6395 41.452 11.5997 41.558 11.5865C41.6641 11.5599 41.7635 11.5401 41.8563 11.5268C41.9358 11.5135 42.0087 11.5069 42.075 11.5069C42.1413 11.4937 42.1877 11.4672 42.2142 11.4274C42.3733 11.3744 42.5589 11.3147 42.771 11.2484C43.1024 11.1556 43.5398 11.0562 44.0833 10.9502C44.6268 10.8309 45.2366 10.7381 45.9127 10.6718L46.2507 10.6519C46.317 10.6652 46.3833 10.6718 46.4495 10.6718C46.5158 10.6585 46.5821 10.6519 46.6484 10.6519C47.2449 10.6519 47.6227 10.8309 47.7818 11.1888C47.9011 11.2551 48.0071 11.328 48.0999 11.4075C48.1927 11.487 48.2789 11.5666 48.3584 11.6461C48.3982 11.6991 48.438 11.7455 48.4777 11.7853C48.5308 11.8251 48.5705 11.8516 48.597 11.8648C48.8224 12.2095 48.8953 12.5144 48.8158 12.7795C48.6965 12.9518 48.544 13.0513 48.3584 13.0778L48.1397 13.1971C47.9939 13.1838 47.8812 13.1772 47.8017 13.1772C47.7354 13.1772 47.6625 13.1772 47.5829 13.1772C47.2515 13.1772 46.8671 13.1971 46.4297 13.2368C45.9922 13.2766 45.5415 13.3363 45.0775 13.4158C44.6268 13.4821 44.1894 13.5683 43.7652 13.6743C43.341 13.7804 42.9698 13.893 42.6517 14.0123L42.2937 14.1913C42.2009 14.3371 42.1479 14.4564 42.1347 14.5492C42.1214 14.6287 42.1081 14.7083 42.0949 14.7878C42.0816 14.8408 42.0684 14.8939 42.0551 14.9469C42.0551 14.9999 42.0485 15.0596 42.0352 15.1258C41.8099 15.4042 41.6972 15.7356 41.6972 16.1201C41.6044 16.2791 41.5448 16.3984 41.5183 16.478C41.4917 16.5443 41.4917 16.6304 41.5183 16.7365C41.7701 16.8425 42.0087 16.8823 42.2341 16.8558C42.4594 16.8293 42.6848 16.7961 42.9101 16.7564C43.215 16.7033 43.5266 16.6569 43.8447 16.6172C44.1761 16.5774 44.5141 16.5575 44.8588 16.5575H45.4951L45.336 16.7166L45.4354 16.995C45.515 17.0347 45.568 17.0612 45.5945 17.0745C45.6343 17.0878 45.6741 17.1076 45.7138 17.1342L45.8132 17.3131C45.8663 17.3396 45.9127 17.386 45.9524 17.4523C46.0055 17.5186 46.0386 17.618 46.0519 17.7506L45.2366 18.9039L44.9582 18.9834C44.7329 18.9701 44.534 18.9966 44.3617 19.0629C44.2689 19.0894 44.1761 19.1159 44.0833 19.1425C43.9905 19.1557 43.8911 19.1623 43.7851 19.1623C43.5199 19.2154 43.2946 19.2551 43.109 19.2817C42.9367 19.3082 42.7577 19.3347 42.5721 19.3612C42.3335 19.3877 42.1015 19.4275 41.8762 19.4805C41.6508 19.5203 41.4387 19.5799 41.2399 19.6595C41.1073 19.6595 41.0145 19.6595 40.9615 19.6595C40.8554 19.6595 40.7428 19.6793 40.6235 19.7191C40.5174 19.7456 40.418 19.7721 40.3252 19.7986C40.2589 19.8517 40.2125 19.9113 40.186 19.9776C40.1595 20.0306 40.133 20.0903 40.1065 20.1566C40.0534 20.3421 39.9805 20.4946 39.8877 20.6139V20.9122C39.7817 21.0447 39.7154 21.1508 39.6889 21.2303C39.6756 21.2966 39.6558 21.3629 39.6292 21.4291C39.6027 21.4689 39.5829 21.5087 39.5696 21.5485C39.5563 21.575 39.5497 21.6081 39.5497 21.6479C39.6558 21.8467 39.6823 22.0721 39.6292 22.3239Z" fill="#4361EE"/>
<path d="M53.578 20.6537V7.72892H56.4612V23H53.8663L53.578 20.6537ZM46.7776 17.7506V17.5418C46.7776 16.7199 46.8704 15.9742 47.056 15.3048C47.2416 14.6287 47.5133 14.0488 47.8713 13.5649C48.2292 13.0811 48.6699 12.7066 49.1936 12.4415C49.7172 12.1764 50.3137 12.0438 50.9831 12.0438C51.6128 12.0438 52.1629 12.1764 52.6335 12.4415C53.1107 12.7066 53.5151 13.0844 53.8465 13.5749C54.1845 14.0587 54.4562 14.6321 54.6617 15.2949C54.8672 15.951 55.0163 16.6702 55.1091 17.4523V17.9096C55.0163 18.6586 54.8672 19.3546 54.6617 19.9975C54.4562 20.6404 54.1845 21.2038 53.8465 21.6876C53.5151 22.1649 53.1107 22.536 52.6335 22.8012C52.1563 23.0663 51.5995 23.1988 50.9633 23.1988C50.2938 23.1988 49.6973 23.063 49.1737 22.7912C48.6567 22.5195 48.2192 22.1384 47.8613 21.6479C47.51 21.1574 47.2416 20.5808 47.056 19.9179C46.8704 19.2551 46.7776 18.5327 46.7776 17.7506ZM49.641 17.5418V17.7506C49.641 18.1946 49.6741 18.6089 49.7404 18.9933C49.8133 19.3778 49.9293 19.7191 50.0883 20.0174C50.254 20.309 50.4661 20.5377 50.7246 20.7034C50.9898 20.8624 51.3112 20.942 51.689 20.942C52.1795 20.942 52.5838 20.8326 52.902 20.6139C53.2201 20.3885 53.462 20.0803 53.6277 19.6893C53.8001 19.2982 53.8995 18.8475 53.926 18.3372V17.0347C53.9061 16.6172 53.8465 16.2427 53.747 15.9113C53.6543 15.5732 53.5151 15.2849 53.3295 15.0463C53.1505 14.8077 52.9252 14.6221 52.6534 14.4896C52.3883 14.357 52.0735 14.2907 51.7089 14.2907C51.3377 14.2907 51.0196 14.3769 50.7545 14.5492C50.4893 14.7149 50.2739 14.9436 50.1082 15.2352C49.9492 15.5268 49.8299 15.8715 49.7503 16.2692C49.6774 16.6602 49.641 17.0844 49.641 17.5418ZM63.6494 23.1988C62.8142 23.1988 62.0653 23.0663 61.4025 22.8012C60.7397 22.5294 60.1763 22.1549 59.7123 21.6777C59.255 21.2005 58.9037 20.647 58.6584 20.0174C58.4132 19.3811 58.2906 18.705 58.2906 17.9892V17.5915C58.2906 16.7762 58.4066 16.0306 58.6386 15.3545C58.8705 14.6785 59.2019 14.0919 59.6328 13.5948C60.0702 13.0977 60.6005 12.7165 61.2235 12.4514C61.8465 12.1797 62.5491 12.0438 63.3312 12.0438C64.0935 12.0438 64.7695 12.1697 65.3594 12.4216C65.9493 12.6735 66.4431 13.0314 66.8408 13.4953C67.2451 13.9593 67.55 14.5161 67.7555 15.1656C67.9609 15.8085 68.0637 16.5244 68.0637 17.3131V18.5062H59.5135V16.5973H65.2501V16.3786C65.2501 15.9809 65.1772 15.6263 65.0313 15.3147C64.8921 14.9966 64.6801 14.7447 64.395 14.5591C64.11 14.3736 63.7455 14.2808 63.3014 14.2808C62.9236 14.2808 62.5988 14.3636 62.3271 14.5293C62.0553 14.695 61.8333 14.927 61.661 15.2253C61.4953 15.5235 61.3693 15.8748 61.2832 16.2791C61.2036 16.6768 61.1639 17.1143 61.1639 17.5915V17.9892C61.1639 18.42 61.2235 18.8177 61.3428 19.1822C61.4687 19.5468 61.6444 19.8616 61.8697 20.1267C62.1017 20.3919 62.3801 20.5973 62.7049 20.7431C63.0363 20.889 63.4108 20.9619 63.8283 20.9619C64.3453 20.9619 64.8259 20.8624 65.2699 20.6636C65.7207 20.4581 66.1084 20.1499 66.4332 19.739L67.8251 21.2502C67.5997 21.575 67.2915 21.8865 66.9005 22.1847C66.516 22.483 66.0521 22.7282 65.5086 22.9205C64.9651 23.106 64.3453 23.1988 63.6494 23.1988ZM72.5575 14.3106V27.1359H69.6942V12.2426H72.3487L72.5575 14.3106ZM79.3679 17.502V17.7108C79.3679 18.4929 79.2751 19.2187 79.0895 19.8881C78.9105 20.5576 78.6454 21.1408 78.2941 21.6379C77.9428 22.1284 77.5054 22.5128 76.9818 22.7912C76.4648 23.063 75.8682 23.1988 75.1922 23.1988C74.536 23.1988 73.966 23.0663 73.4821 22.8012C72.9983 22.536 72.5907 22.1649 72.2593 21.6876C71.9345 21.2038 71.6727 20.6437 71.4738 20.0074C71.275 19.3711 71.1225 18.6884 71.0165 17.9594V17.4125C71.1225 16.6304 71.275 15.9146 71.4738 15.265C71.6727 14.6089 71.9345 14.0422 72.2593 13.5649C72.5907 13.0811 72.995 12.7066 73.4722 12.4415C73.956 12.1764 74.5227 12.0438 75.1723 12.0438C75.855 12.0438 76.4548 12.173 76.9718 12.4315C77.4954 12.69 77.9329 13.0612 78.2842 13.5451C78.6421 14.0289 78.9105 14.6055 79.0895 15.275C79.2751 15.9444 79.3679 16.6868 79.3679 17.502ZM76.4946 17.7108V17.502C76.4946 17.0447 76.4548 16.6238 76.3753 16.2394C76.3024 15.8483 76.1831 15.507 76.0174 15.2153C75.8583 14.9237 75.6462 14.6983 75.3811 14.5393C75.1226 14.3736 74.8077 14.2907 74.4366 14.2907C74.0455 14.2907 73.7108 14.3537 73.4324 14.4796C73.1607 14.6055 72.9386 14.7878 72.7663 15.0264C72.594 15.265 72.4647 15.55 72.3786 15.8814C72.2924 16.2129 72.2394 16.5873 72.2195 17.0049V18.3869C72.2526 18.8773 72.3454 19.3181 72.4979 19.7092C72.6503 20.0936 72.8856 20.3985 73.2038 20.6238C73.5219 20.8492 73.9395 20.9619 74.4565 20.9619C74.8343 20.9619 75.1524 20.879 75.4109 20.7133C75.6694 20.541 75.8782 20.3057 76.0373 20.0074C76.203 19.7092 76.3189 19.3645 76.3852 18.9734C76.4581 18.5824 76.4946 18.1615 76.4946 17.7108ZM80.6902 17.7307V17.5219C80.6902 16.7332 80.8028 16.0074 81.0282 15.3446C81.2535 14.6751 81.5816 14.0952 82.0125 13.6047C82.4433 13.1142 82.9735 12.7331 83.6032 12.4614C84.2329 12.183 84.9553 12.0438 85.7706 12.0438C86.5858 12.0438 87.3116 12.183 87.9479 12.4614C88.5842 12.7331 89.1178 13.1142 89.5486 13.6047C89.986 14.0952 90.3174 14.6751 90.5428 15.3446C90.7681 16.0074 90.8808 16.7332 90.8808 17.5219V17.7307C90.8808 18.5128 90.7681 19.2386 90.5428 19.908C90.3174 20.5708 89.986 21.1508 89.5486 21.6479C89.1178 22.1384 88.5875 22.5195 87.9578 22.7912C87.3282 23.063 86.6057 23.1988 85.7905 23.1988C84.9752 23.1988 84.2494 23.063 83.6131 22.7912C82.9835 22.5195 82.4499 22.1384 82.0125 21.6479C81.5816 21.1508 81.2535 20.5708 81.0282 19.908C80.8028 19.2386 80.6902 18.5128 80.6902 17.7307ZM83.5535 17.5219V17.7307C83.5535 18.1814 83.5933 18.6023 83.6728 18.9933C83.7523 19.3844 83.8783 19.729 84.0506 20.0273C84.2296 20.3189 84.4615 20.5476 84.7465 20.7133C85.0315 20.879 85.3795 20.9619 85.7905 20.9619C86.1881 20.9619 86.5295 20.879 86.8145 20.7133C87.0995 20.5476 87.3282 20.3189 87.5005 20.0273C87.6728 19.729 87.7988 19.3844 87.8783 18.9933C87.9645 18.6023 88.0076 18.1814 88.0076 17.7307V17.5219C88.0076 17.0844 87.9645 16.6735 87.8783 16.2891C87.7988 15.898 87.6695 15.5534 87.4906 15.2551C87.3182 14.9502 87.0896 14.7116 86.8046 14.5393C86.5196 14.3669 86.1749 14.2808 85.7706 14.2808C85.3663 14.2808 85.0216 14.3669 84.7366 14.5393C84.4582 14.7116 84.2296 14.9502 84.0506 15.2551C83.8783 15.5534 83.7523 15.898 83.6728 16.2891C83.5933 16.6735 83.5535 17.0844 83.5535 17.5219Z" fill="white"/>
</svg>
