<svg width="107" height="49" viewBox="0 0 107 49" fill="none" xmlns="http://www.w3.org/2000/svg">
<g clip-path="url(#clip0_150_1583)">
<path d="M101.649 14.3587C102.411 15.1132 103.02 15.7168 103.629 16.3958C107.589 20.6964 108.046 26.1287 105.076 31.1084C103.629 33.5227 101.649 35.409 99.4412 37.0688C94.3395 40.8413 88.6286 43.3311 82.537 44.9155C63.1962 49.9706 43.7031 50.197 24.1339 46.3491C18.9561 45.3682 13.9305 43.7838 9.20951 41.2185C6.62059 39.785 4.2601 38.1251 2.50877 35.7107C-0.460884 31.7874 -0.765463 27.6377 1.44274 23.2617C2.88949 20.3192 5.17383 18.0557 7.76276 16.0186C12.3315 12.397 17.357 9.68085 22.7633 7.56827C42.3325 -0.353871 62.5109 -1.86285 83.1462 2.13595C88.7809 3.19223 94.111 5.07846 98.9843 8.24731C99.9742 8.92636 100.964 9.6054 101.878 10.4353C103.705 12.0198 103.629 12.5479 101.649 14.3587ZM83.2985 6.13474C83.2985 6.05929 83.2985 5.98384 83.2985 5.83295C82.0801 5.6066 80.938 5.3048 79.7196 5.07846C63.5008 2.36229 47.5104 3.19223 31.7484 7.94552C24.8954 9.98264 18.2707 12.7743 12.4076 16.9239C10.1994 18.5084 7.99119 20.2437 6.23986 22.2808C2.20419 27.0341 2.66105 31.8628 7.61047 35.7107C9.74253 37.3706 12.2553 38.6533 14.7681 39.785C20.1744 42.1239 25.8852 43.2556 31.6722 44.0856C45.5306 45.9718 59.389 45.8209 73.1712 43.482C80.5572 42.1994 87.7149 40.0868 94.2633 36.2389C96.9284 34.6545 99.4412 32.8437 101.269 30.3539C104.391 26.2042 104.086 21.8281 100.355 18.2066C99.2127 17.0748 97.9183 16.094 96.5477 15.1886C90.1515 11.0389 83.07 9.3036 75.5317 9.4545C73.9326 9.4545 72.2575 9.6054 70.6584 9.68085C69.6685 9.68085 68.8309 9.3036 68.7548 8.24731C68.6786 7.34193 69.3639 6.73834 70.2777 6.66289C71.8767 6.43654 73.4758 6.05929 75.0748 5.98384C77.816 5.9084 80.5572 6.05929 83.2985 6.13474Z" fill="#4361EE"/>
</g>
<defs>
<clipPath id="clip0_150_1583">
<rect width="107" height="49" fill="white"/>
</clipPath>
</defs>
</svg>
