<svg width="20" height="21" viewBox="0 0 20 21" fill="none" xmlns="http://www.w3.org/2000/svg">
<path d="M13.492 1.81799H6.50866C3.47533 1.81799 1.66699 3.62633 1.66699 6.65966V13.6347C1.66699 16.6763 3.47533 18.4847 6.50866 18.4847H13.4837C16.517 18.4847 18.3253 16.6763 18.3253 13.643V6.65966C18.3337 3.62633 16.5253 1.81799 13.492 1.81799ZM14.3837 8.45133L12.4587 10.9347C12.217 11.243 11.8753 11.443 11.4837 11.4847C11.092 11.5347 10.7087 11.4263 10.4003 11.1847L8.87533 9.98466C8.81699 9.93466 8.75033 9.93466 8.71699 9.94299C8.68366 9.94299 8.62533 9.95966 8.57533 10.0263L6.59199 12.6013C6.46699 12.7597 6.28366 12.843 6.10033 12.843C5.96699 12.843 5.83366 12.8013 5.71699 12.7097C5.44199 12.5013 5.39199 12.1097 5.60033 11.8347L7.58366 9.25966C7.82533 8.95133 8.16699 8.75133 8.55866 8.70133C8.94199 8.65133 9.33366 8.75966 9.64199 9.00133L11.167 10.2013C11.2253 10.2513 11.2837 10.2513 11.3253 10.243C11.3587 10.243 11.417 10.2263 11.467 10.1597L13.392 7.67633C13.6003 7.40133 14.0003 7.35133 14.267 7.56799C14.542 7.79299 14.592 8.18466 14.3837 8.45133Z" fill="white"/>
</svg>
