<svg width="20" height="21" viewBox="0 0 20 21" fill="none" xmlns="http://www.w3.org/2000/svg">
<path d="M12.5 3.15137C10.5678 3.15137 9 4.71921 9 6.65137C9 8.58352 10.5678 10.1514 12.5 10.1514C14.4322 10.1514 16 8.58352 16 6.65137C16 4.71921 14.4322 3.15137 12.5 3.15137Z" fill="black"/>
<path d="M6 11.1514C4.9009 11.1514 4 12.0463 4 13.1514C4 14.2565 4.89489 15.1514 6 15.1514C7.0991 15.1514 8 14.2565 8 13.1514C8 12.0463 7.0991 11.1514 6 11.1514Z" fill="black"/>
<path d="M13 13.1514C11.8968 13.1514 11 14.0482 11 15.1514C11 16.2546 11.8968 17.1514 13 17.1514C14.1032 17.1514 15 16.2546 15 15.1514C15 14.0482 14.1032 13.1514 13 13.1514Z" fill="black"/>
</svg>
