<svg width="20" height="20" viewBox="0 0 20 20" fill="none" xmlns="http://www.w3.org/2000/svg">
<path d="M16.159 6.31772V12.6209C16.159 14.4368 14.6852 15.9106 12.8692 15.9106H6.28976C5.9871 15.9106 5.69761 15.8711 5.41469 15.7922C5.00676 15.6803 4.87517 15.1605 5.17783 14.8579L12.1718 7.86389C12.3166 7.71915 12.5337 7.68625 12.7376 7.72573C12.9482 7.7652 13.1785 7.70599 13.343 7.54808L15.0339 5.85057C15.6524 5.2321 16.159 5.43607 16.159 6.31772Z" fill="black"/>
<path d="M11.3165 7.40316L4.42775 14.2919C4.11193 14.6077 3.58557 14.5287 3.37503 14.134C3.13159 13.6866 3 13.1668 3 12.6207V6.31754C3 5.43589 3.50662 5.23193 4.12509 5.8504L5.8226 7.55448C6.0792 7.8045 6.50028 7.8045 6.75688 7.55448L9.11234 5.19245C9.36894 4.93585 9.79002 4.93585 10.0466 5.19245L11.323 6.46887C11.5731 6.72547 11.5731 7.14656 11.3165 7.40316Z" fill="black"/>
</svg>
