<svg width="20" height="21" viewBox="0 0 20 21" fill="none" xmlns="http://www.w3.org/2000/svg">
<path d="M9.44444 14.6679H7.77778C6.96296 14.6679 6.2963 15.2639 6.2963 15.9924V16.158H5.55556C5.25185 16.158 5 16.3832 5 16.6547C5 16.9262 5.25185 17.1514 5.55556 17.1514H14.4444C14.7481 17.1514 15 16.9262 15 16.6547C15 16.3832 14.7481 16.158 14.4444 16.158H13.7037V15.9924C13.7037 15.2639 13.037 14.6679 12.2222 14.6679H10.5556V13.1514C10.3704 13.1712 10.1852 13.1779 10 13.1779C9.81481 13.1779 9.62963 13.1712 9.44444 13.1514V14.6679Z" fill="black"/>
<path d="M14.6667 10.0371C15.142 9.85851 15.5597 9.56565 15.8909 9.23708C16.5607 8.50137 17 7.6228 17 6.59422C17 5.56565 16.1862 4.75851 15.1492 4.75851H14.7459C14.2778 3.80851 13.2984 3.15137 12.1605 3.15137H7.83951C6.70165 3.15137 5.72222 3.80851 5.25412 4.75851H4.85082C3.81379 4.75851 3 5.56565 3 6.59422C3 7.6228 3.4393 8.50137 4.10905 9.23708C4.44033 9.56565 4.85802 9.85851 5.33333 10.0371C6.0823 11.8657 7.88272 13.1514 10 13.1514C12.1173 13.1514 13.9177 11.8657 14.6667 10.0371ZM12.0453 7.75851L11.5988 8.30137C11.5267 8.37994 11.4763 8.53708 11.4835 8.64422L11.5267 9.34422C11.5556 9.7728 11.2459 9.99422 10.8426 9.83708L10.1872 9.57994C10.0864 9.54422 9.91358 9.54422 9.81276 9.57994L9.15741 9.83708C8.75412 9.99422 8.44445 9.7728 8.47325 9.34422L8.51646 8.64422C8.52366 8.53708 8.47325 8.37994 8.40124 8.30137L7.95473 7.75851C7.67387 7.42994 7.7963 7.06565 8.21399 6.95851L8.89815 6.78708C9.00617 6.75851 9.1358 6.65851 9.19342 6.56565L9.5751 5.97994C9.81276 5.61565 10.1872 5.61565 10.4249 5.97994L10.8066 6.56565C10.8642 6.65851 10.9938 6.75851 11.1019 6.78708L11.786 6.95851C12.2037 7.06565 12.3261 7.42994 12.0453 7.75851Z" fill="black"/>
</svg>
