<svg width="20" height="20" viewBox="0 0 20 20" fill="none" xmlns="http://www.w3.org/2000/svg">
<path d="M17.2584 6.76689V14.6086C17.2584 16.6586 15.5834 18.3336 13.5334 18.3336H6.4667C4.4167 18.3336 2.7417 16.6586 2.7417 14.6086V6.76689C2.7417 5.34189 3.5417 4.10023 4.7167 3.47523C5.12503 3.25856 5.63337 3.55023 5.63337 4.01689C5.63337 5.34189 6.7167 6.42523 8.0417 6.42523H11.9584C13.2834 6.42523 14.3667 5.34189 14.3667 4.01689C14.3667 3.55023 14.8667 3.25856 15.2834 3.47523C16.4584 4.10023 17.2584 5.34189 17.2584 6.76689Z" fill="white"/>
<path d="M11.9585 1.6665H8.0418C7.17513 1.6665 6.4668 2.3665 6.4668 3.23317V4.0165C6.4668 4.88317 7.1668 5.58317 8.03346 5.58317H11.9585C12.8251 5.58317 13.5251 4.88317 13.5251 4.0165V3.23317C13.5335 2.3665 12.8251 1.6665 11.9585 1.6665Z" fill="white"/>
</svg>
