<svg width="20" height="21" viewBox="0 0 20 21" fill="none" xmlns="http://www.w3.org/2000/svg">
<path d="M13.3333 1.81799H6.66667C3.75 1.81799 2.5 3.48466 2.5 5.98466V14.318C2.5 16.818 3.75 18.4847 6.66667 18.4847H13.3333C16.25 18.4847 17.5 16.818 17.5 14.318V5.98466C17.5 3.48466 16.25 1.81799 13.3333 1.81799ZM6.66667 10.3597H10C10.3417 10.3597 10.625 10.643 10.625 10.9847C10.625 11.3263 10.3417 11.6097 10 11.6097H6.66667C6.325 11.6097 6.04167 11.3263 6.04167 10.9847C6.04167 10.643 6.325 10.3597 6.66667 10.3597ZM13.3333 14.943H6.66667C6.325 14.943 6.04167 14.6597 6.04167 14.318C6.04167 13.9763 6.325 13.693 6.66667 13.693H13.3333C13.675 13.693 13.9583 13.9763 13.9583 14.318C13.9583 14.6597 13.675 14.943 13.3333 14.943ZM15.4167 7.85966H13.75C12.4833 7.85966 11.4583 6.83466 11.4583 5.56799V3.90133C11.4583 3.55966 11.7417 3.27633 12.0833 3.27633C12.425 3.27633 12.7083 3.55966 12.7083 3.90133V5.56799C12.7083 6.14299 13.175 6.60966 13.75 6.60966H15.4167C15.7583 6.60966 16.0417 6.89299 16.0417 7.23466C16.0417 7.57633 15.7583 7.85966 15.4167 7.85966Z" fill="black"/>
</svg>
