<svg width="344" height="7" viewBox="0 0 344 7" fill="none" xmlns="http://www.w3.org/2000/svg">
<path d="M0.0475123 6.61746C1.7931 6.49545 3.39516 6.438 5.14288 6.37532C6.89059 6.31265 8.49055 6.19586 10.2361 6.07385C14.0186 5.81939 17.6533 5.51081 21.4358 5.25635C28.5638 4.76309 35.8374 4.26461 42.9718 3.94935C49.5215 3.59565 56.219 3.29605 62.7729 3.06102C64.5206 2.99834 66.2683 2.93566 67.8704 2.87821C74.4265 2.70251 80.9804 2.46747 87.5365 2.29177C102.835 1.92135 118.28 1.5457 133.583 1.29395C148.595 1.05264 163.607 0.811332 178.475 0.634579C185.764 0.551425 193.198 0.463049 200.487 0.379895C208.508 0.389292 216.524 0.280023 224.398 0.23531C240.874 0.179102 257.204 0.0687834 273.68 0.012575C287.97 -0.0246207 302.121 0.121404 316.278 0.445427C325.33 0.714926 334.528 1.03853 343.582 1.36737C333.252 2.03486 322.77 2.52959 312.285 2.96498C305.44 3.21046 298.593 3.39661 291.891 3.57754C287.52 3.67489 283.146 3.71292 278.627 3.75617C275.858 3.79607 273.232 3.77142 270.606 3.74677C263.459 3.70604 256.168 3.72986 249.021 3.68912C240.709 3.69017 232.54 3.62667 224.228 3.62772C215.77 3.63399 207.166 3.64548 198.708 3.65176C191.126 3.68602 183.399 3.72551 175.671 3.765C168.235 3.79405 160.655 3.88765 153.221 3.97602C145.641 4.06962 138.207 4.158 130.627 4.2516C122.901 4.35042 115.326 4.56269 107.602 4.72084C93.6121 4.98492 79.6283 5.427 65.4987 5.8743C57.634 6.15634 49.9107 6.3145 42.0417 6.47788C34.3183 6.63603 26.595 6.79419 19.0152 6.88779C15.9545 6.93814 12.7482 6.99371 9.68546 6.98473C8.2269 6.97763 6.62271 6.97575 5.16203 6.90932C3.847 6.83766 2.52981 6.70667 1.21691 6.69434C0.77784 6.65068 0.484426 6.60179 0.0475123 6.61746Z" fill="#4361EE"/>
</svg>
