<svg width="20" height="20" viewBox="0 0 20 20" fill="none" xmlns="http://www.w3.org/2000/svg">
<path d="M18.3332 9.37502H16.6332C16.3332 6.20002 13.7998 3.65835 10.6248 3.36669V1.66669C10.6248 1.32502 10.3415 1.04169 9.99984 1.04169C9.65817 1.04169 9.37484 1.32502 9.37484 1.66669V3.36669C6.19984 3.66669 3.65817 6.20002 3.3665 9.37502H1.6665C1.32484 9.37502 1.0415 9.65835 1.0415 10C1.0415 10.3417 1.32484 10.625 1.6665 10.625H3.3665C3.6665 13.8 6.19984 16.3417 9.37484 16.6334V18.3334C9.37484 18.675 9.65817 18.9584 9.99984 18.9584C10.3415 18.9584 10.6248 18.675 10.6248 18.3334V16.6334C13.7998 16.3334 16.3415 13.8 16.6332 10.625H18.3332C18.6748 10.625 18.9582 10.3417 18.9582 10C18.9582 9.65835 18.6748 9.37502 18.3332 9.37502ZM9.99984 12.6C8.5665 12.6 7.39984 11.4334 7.39984 10C7.39984 8.56669 8.5665 7.40002 9.99984 7.40002C11.4332 7.40002 12.5998 8.56669 12.5998 10C12.5998 11.4334 11.4332 12.6 9.99984 12.6Z" fill="black"/>
</svg>
