<svg width="20" height="21" viewBox="0 0 20 21" fill="none" xmlns="http://www.w3.org/2000/svg">
<path d="M15.9247 4.28469C12.6664 1.02636 7.37473 1.02636 4.11639 4.28469C0.799727 7.60136 0.858061 13.0097 4.28306 16.2597C7.44973 19.2514 12.5831 19.2514 15.7497 16.2597C19.1831 13.0097 19.2414 7.60136 15.9247 4.28469ZM13.6497 14.0264C12.6497 14.9764 11.3331 15.4514 10.0164 15.4514C8.69973 15.4514 7.38306 14.9764 6.38306 14.0264C6.13306 13.7847 6.12473 13.393 6.35806 13.143C6.59973 12.893 6.99139 12.8847 7.24139 13.118C8.76639 14.5597 11.2581 14.568 12.7914 13.118C13.0414 12.8847 13.4414 12.893 13.6747 13.143C13.9164 13.393 13.8997 13.7847 13.6497 14.0264Z" fill="black"/>
</svg>
