<svg width="20" height="20" viewBox="0 0 20 20" fill="none" xmlns="http://www.w3.org/2000/svg">
<path d="M10.4164 4.56667C10.4831 4.56667 10.5498 4.56667 10.6248 4.575V2.10834C10.6248 1.76667 10.3414 1.48334 9.99977 1.48334C9.6581 1.48334 9.37477 1.76667 9.37477 2.10834V4.575C9.44144 4.56667 9.50811 4.56667 9.58311 4.56667C5.74144 4.75834 2.68311 7.925 2.68311 11.8167V13.4333C2.68311 14.35 3.43311 15.1 4.34977 15.1H15.6498C16.5664 15.1 17.3164 14.35 17.3164 13.4333V11.8167C17.3164 7.925 14.2581 4.75834 10.4164 4.56667Z" fill="black"/>
<path d="M12.2749 15.925C12.5499 15.925 12.7499 16.1833 12.6833 16.45C12.3666 17.6417 11.2833 18.5167 9.99995 18.5167C8.71661 18.5167 7.63328 17.6417 7.31661 16.45C7.24995 16.1833 7.44995 15.925 7.72495 15.925H12.2749Z" fill="black"/>
</svg>
