<svg width="27" height="28" viewBox="0 0 27 28" fill="none" xmlns="http://www.w3.org/2000/svg">
<path d="M21.0938 9.15125V11.5137C20.5988 11.4462 20.0363 11.4125 19.4062 11.4012V9.15125C19.4062 5.6075 18.405 3.245 13.5 3.245C8.595 3.245 7.59375 5.6075 7.59375 9.15125V11.4012C6.96375 11.4125 6.40125 11.4462 5.90625 11.5137V9.15125C5.90625 5.88875 6.69375 1.5575 13.5 1.5575C20.3063 1.5575 21.0938 5.88875 21.0938 9.15125Z" fill="white"/>
<path d="M21.0938 11.5137C20.5988 11.4462 20.0363 11.4125 19.4062 11.4012H7.59375C6.96375 11.4125 6.40125 11.4462 5.90625 11.5137C3.0375 11.8625 2.25 13.2687 2.25 17.0262V19.2762C2.25 23.7762 3.375 24.9012 7.875 24.9012H19.125C23.625 24.9012 24.75 23.7762 24.75 19.2762V17.0262C24.75 13.2687 23.9625 11.8625 21.0938 11.5137ZM9.79875 18.95C9.585 19.1525 9.2925 19.2762 9 19.2762C8.85375 19.2762 8.7075 19.2425 8.5725 19.1862C8.42625 19.13 8.31375 19.0512 8.20125 18.95C7.99875 18.7362 7.875 18.4437 7.875 18.1512C7.875 18.005 7.90875 17.8587 7.965 17.7237C8.02125 17.5887 8.1 17.465 8.20125 17.3525C8.31375 17.2512 8.42625 17.1725 8.5725 17.1162C8.98875 16.9362 9.48375 17.0375 9.79875 17.3525C9.9 17.465 9.97875 17.5887 10.035 17.7237C10.0913 17.8587 10.125 18.005 10.125 18.1512C10.125 18.4437 10.0013 18.7362 9.79875 18.95ZM14.535 18.5787C14.4788 18.7137 14.4 18.8375 14.2988 18.95C14.085 19.1525 13.7925 19.2762 13.5 19.2762C13.1962 19.2762 12.915 19.1525 12.7012 18.95C12.6 18.8375 12.5212 18.7137 12.465 18.5787C12.4087 18.4437 12.375 18.2975 12.375 18.1512C12.375 17.8475 12.4987 17.5662 12.7012 17.3525C13.1175 16.9362 13.8713 16.9362 14.2988 17.3525C14.5013 17.5662 14.625 17.8475 14.625 18.1512C14.625 18.2975 14.5913 18.4437 14.535 18.5787ZM18.7987 18.95C18.585 19.1525 18.2925 19.2762 18 19.2762C17.7075 19.2762 17.415 19.1525 17.2012 18.95C16.9987 18.7362 16.875 18.455 16.875 18.1512C16.875 17.8475 16.9987 17.5662 17.2012 17.3525C17.6287 16.9362 18.3825 16.9362 18.7987 17.3525C18.8437 17.4087 18.8887 17.465 18.9337 17.5325C18.9787 17.5887 19.0125 17.6562 19.035 17.7237C19.0688 17.7912 19.0912 17.8587 19.1025 17.9262C19.1137 18.005 19.125 18.0837 19.125 18.1512C19.125 18.4437 19.0012 18.7362 18.7987 18.95Z" fill="white"/>
</svg>
