<svg width="18" height="16" viewBox="0 0 18 16" fill="none" xmlns="http://www.w3.org/2000/svg">
<path fill-rule="evenodd" clip-rule="evenodd" d="M0.599609 2.00005C0.599609 1.68179 0.726038 1.37656 0.951081 1.15152C1.17612 0.926477 1.48135 0.800049 1.79961 0.800049H16.1996C16.5179 0.800049 16.8231 0.926477 17.0481 1.15152C17.2732 1.37656 17.3996 1.68179 17.3996 2.00005C17.3996 2.31831 17.2732 2.62353 17.0481 2.84858C16.8231 3.07362 16.5179 3.20005 16.1996 3.20005H1.79961C1.48135 3.20005 1.17612 3.07362 0.951081 2.84858C0.726038 2.62353 0.599609 2.31831 0.599609 2.00005ZM0.599609 8.00005C0.599609 7.68179 0.726038 7.37656 0.951081 7.15152C1.17612 6.92648 1.48135 6.80005 1.79961 6.80005H16.1996C16.5179 6.80005 16.8231 6.92648 17.0481 7.15152C17.2732 7.37656 17.3996 7.68179 17.3996 8.00005C17.3996 8.31831 17.2732 8.62353 17.0481 8.84858C16.8231 9.07362 16.5179 9.20005 16.1996 9.20005H1.79961C1.48135 9.20005 1.17612 9.07362 0.951081 8.84858C0.726038 8.62353 0.599609 8.31831 0.599609 8.00005ZM0.599609 14C0.599609 13.6818 0.726038 13.3766 0.951081 13.1515C1.17612 12.9265 1.48135 12.8 1.79961 12.8H16.1996C16.5179 12.8 16.8231 12.9265 17.0481 13.1515C17.2732 13.3766 17.3996 13.6818 17.3996 14C17.3996 14.3183 17.2732 14.6235 17.0481 14.8486C16.8231 15.0736 16.5179 15.2 16.1996 15.2H1.79961C1.48135 15.2 1.17612 15.0736 0.951081 14.8486C0.726038 14.6235 0.599609 14.3183 0.599609 14Z" fill="#4361EE"/>
</svg>
