<svg width="20" height="21" viewBox="0 0 20 21" fill="none" xmlns="http://www.w3.org/2000/svg">
<path d="M15.3913 14.1764L15.7163 16.8097C15.7997 17.5014 15.058 17.9847 14.4663 17.6264L11.583 15.9097C11.383 15.7931 11.333 15.5431 11.4413 15.3431C11.858 14.5764 12.083 13.7097 12.083 12.8431C12.083 9.79305 9.46633 7.30972 6.24967 7.30972C5.59133 7.30972 4.94967 7.40972 4.34967 7.60972C4.04133 7.70972 3.74133 7.42639 3.81633 7.10972C4.57467 4.07639 7.49133 1.81805 10.9747 1.81805C15.0413 1.81805 18.333 4.89305 18.333 8.68472C18.333 10.9347 17.1747 12.9264 15.3913 14.1764Z" fill="white"/>
<path d="M10.8337 12.843C10.8337 13.8347 10.467 14.7514 9.85033 15.4764C9.02533 16.4764 7.71699 17.118 6.25033 17.118L4.07533 18.4097C3.70866 18.6347 3.24199 18.3264 3.29199 17.9014L3.50033 16.2597C2.38366 15.4847 1.66699 14.243 1.66699 12.843C1.66699 11.3764 2.45033 10.0847 3.65033 9.31803C4.39199 8.83469 5.28366 8.55969 6.25033 8.55969C8.78366 8.55969 10.8337 10.4764 10.8337 12.843Z" fill="white"/>
</svg>
