<svg width="20" height="20" viewBox="0 0 20 20" fill="none" xmlns="http://www.w3.org/2000/svg">
<path d="M13.3334 1.66663H6.66675C3.33341 1.66663 1.66675 3.33329 1.66675 6.66663V17.5C1.66675 17.9583 2.04175 18.3333 2.50008 18.3333H13.3334C16.6667 18.3333 18.3334 16.6666 18.3334 13.3333V6.66663C18.3334 3.33329 16.6667 1.66663 13.3334 1.66663ZM12.9167 10.625H7.08341C6.74175 10.625 6.45841 10.3416 6.45841 9.99996C6.45841 9.65829 6.74175 9.37496 7.08341 9.37496H12.9167C13.2584 9.37496 13.5417 9.65829 13.5417 9.99996C13.5417 10.3416 13.2584 10.625 12.9167 10.625Z" fill="#151515"/>
</svg>
