<svg width="20" height="20" viewBox="0 0 20 20" fill="none" xmlns="http://www.w3.org/2000/svg">
<path d="M13.3332 1.66669H6.6665C3.33317 1.66669 1.6665 3.33335 1.6665 6.66669V17.5C1.6665 17.9584 2.0415 18.3334 2.49984 18.3334H13.3332C16.6665 18.3334 18.3332 16.6667 18.3332 13.3334V6.66669C18.3332 3.33335 16.6665 1.66669 13.3332 1.66669ZM11.6665 12.7084H5.83317C5.4915 12.7084 5.20817 12.425 5.20817 12.0834C5.20817 11.7417 5.4915 11.4584 5.83317 11.4584H11.6665C12.0082 11.4584 12.2915 11.7417 12.2915 12.0834C12.2915 12.425 12.0082 12.7084 11.6665 12.7084ZM14.1665 8.54169H5.83317C5.4915 8.54169 5.20817 8.25835 5.20817 7.91669C5.20817 7.57502 5.4915 7.29169 5.83317 7.29169H14.1665C14.5082 7.29169 14.7915 7.57502 14.7915 7.91669C14.7915 8.25835 14.5082 8.54169 14.1665 8.54169Z" fill="black"/>
</svg>
