<svg width="20" height="21" viewBox="0 0 20 21" fill="none" xmlns="http://www.w3.org/2000/svg">
<path d="M13.3337 1.81799H6.66699C3.33366 1.81799 1.66699 3.48466 1.66699 6.81799V17.6513C1.66699 18.1097 2.04199 18.4847 2.50033 18.4847H13.3337C16.667 18.4847 18.3337 16.818 18.3337 13.4847V6.81799C18.3337 3.48466 16.667 1.81799 13.3337 1.81799ZM11.667 12.8597H5.83366C5.49199 12.8597 5.20866 12.5763 5.20866 12.2347C5.20866 11.893 5.49199 11.6097 5.83366 11.6097H11.667C12.0087 11.6097 12.292 11.893 12.292 12.2347C12.292 12.5763 12.0087 12.8597 11.667 12.8597ZM14.167 8.69299H5.83366C5.49199 8.69299 5.20866 8.40966 5.20866 8.06799C5.20866 7.72633 5.49199 7.44299 5.83366 7.44299H14.167C14.5087 7.44299 14.792 7.72633 14.792 8.06799C14.792 8.40966 14.5087 8.69299 14.167 8.69299Z" fill="white"/>
</svg>
