<svg width="20" height="20" viewBox="0 0 20 20" fill="none" xmlns="http://www.w3.org/2000/svg">
<path d="M13.4915 1.66669H6.50817C3.47484 1.66669 1.6665 3.47502 1.6665 6.50835V13.4834C1.6665 16.525 3.47484 18.3334 6.50817 18.3334H13.4832C16.5165 18.3334 18.3248 16.525 18.3248 13.4917V6.50835C18.3332 3.47502 16.5248 1.66669 13.4915 1.66669ZM5.83317 11.0917C5.23317 11.0917 4.7415 10.6 4.7415 10C4.7415 9.40002 5.23317 8.90835 5.83317 8.90835C6.43317 8.90835 6.92484 9.40002 6.92484 10C6.92484 10.6 6.43317 11.0917 5.83317 11.0917ZM9.99984 11.0917C9.39984 11.0917 8.90817 10.6 8.90817 10C8.90817 9.40002 9.39984 8.90835 9.99984 8.90835C10.5998 8.90835 11.0915 9.40002 11.0915 10C11.0915 10.6 10.5998 11.0917 9.99984 11.0917ZM14.1665 11.0917C13.5665 11.0917 13.0748 10.6 13.0748 10C13.0748 9.40002 13.5665 8.90835 14.1665 8.90835C14.7665 8.90835 15.2582 9.40002 15.2582 10C15.2582 10.6 14.7665 11.0917 14.1665 11.0917Z" fill="black"/>
</svg>
