<svg width="20" height="20" viewBox="0 0 20 20" fill="none" xmlns="http://www.w3.org/2000/svg">
<path d="M17.4998 6.26669V11.1667C17.4998 11.45 17.2248 11.65 16.9582 11.5667L13.6832 10.55C12.7832 10.275 11.8165 10.5084 11.1582 11.1667C10.4915 11.8334 10.2498 12.8084 10.5332 13.7084L11.5415 16.9584C11.6248 17.225 11.4248 17.5 11.1415 17.5H6.2665C3.3915 17.5 1.6665 15.7834 1.6665 12.9V6.26669C1.6665 3.38335 3.3915 1.66669 6.2665 1.66669H12.8998C15.7748 1.66669 17.4998 3.38335 17.4998 6.26669Z" fill="black"/>
<path d="M18.3002 15.7L16.9419 16.1583C16.5669 16.2833 16.2669 16.575 16.1419 16.9583L15.6836 18.3167C15.2919 19.4917 13.6419 19.4667 13.2752 18.2917L11.7336 13.3333C11.4336 12.35 12.3419 11.4333 13.3169 11.7417L18.2836 13.2833C19.4502 13.65 19.4669 15.3083 18.3002 15.7Z" fill="black"/>
</svg>
