<svg width="27" height="27" viewBox="0 0 27 27" fill="none" xmlns="http://www.w3.org/2000/svg">
<path d="M18 4.78125C18 6.17625 16.8638 7.3125 15.4688 7.3125H11.5312C10.8337 7.3125 10.2037 7.03125 9.7425 6.57C9.28125 6.10875 9 5.47875 9 4.78125C9 3.38625 10.1362 2.25 11.5312 2.25H15.4688C16.1663 2.25 16.7963 2.53125 17.2575 2.9925C17.7188 3.45375 18 4.08375 18 4.78125Z" fill="white"/>
<path d="M21.1837 5.65875C20.925 5.445 20.6325 5.27625 20.3175 5.1525C19.9912 5.02875 19.665 5.2875 19.5975 5.625C19.215 7.54875 17.5163 9 15.4688 9H11.5312C10.4062 9 9.34875 8.56125 8.55 7.7625C7.965 7.1775 7.56 6.435 7.4025 5.63625C7.335 5.29875 6.9975 5.02875 6.67125 5.16375C5.36625 5.6925 4.5 6.885 4.5 9.28125V20.25C4.5 23.625 6.51375 24.75 9 24.75H18C20.4863 24.75 22.5 23.625 22.5 20.25V9.28125C22.5 7.4475 21.9937 6.3225 21.1837 5.65875ZM9 13.7813H13.5C13.9612 13.7813 14.3438 14.1638 14.3438 14.625C14.3438 15.0863 13.9612 15.4688 13.5 15.4688H9C8.53875 15.4688 8.15625 15.0863 8.15625 14.625C8.15625 14.1638 8.53875 13.7813 9 13.7813ZM18 19.9688H9C8.53875 19.9688 8.15625 19.5863 8.15625 19.125C8.15625 18.6638 8.53875 18.2813 9 18.2813H18C18.4612 18.2813 18.8438 18.6638 18.8438 19.125C18.8438 19.5863 18.4612 19.9688 18 19.9688Z" fill="white"/>
</svg>
