<svg width="27" height="28" viewBox="0 0 27 28" fill="none" xmlns="http://www.w3.org/2000/svg">
<path d="M17 16C17 20.1423 13.6423 23.5 9.5 23.5C5.35769 23.5 2 20.1423 2 16C2 11.8577 5.35769 8.5 9.5 8.5C9.69615 8.5 9.90385 8.51154 10.1 8.52308C13.7577 8.81154 16.6885 11.7423 16.9769 15.4C16.9885 15.5962 17 15.8038 17 16Z" fill="white"/>
<path d="M25 8.04644C25 11.8313 22.2136 14.9543 18.5913 15.5V15.4303C18.2314 10.9257 14.5743 7.26858 10.0348 6.90867H10C10.5457 3.28638 13.6687 0.5 17.4536 0.5C21.6215 0.5 25 3.87848 25 8.04644Z" fill="white"/>
<path d="M5.91104 0.5H3.08943C2.49024 0.5 2 0.989768 2 1.58837V4.40726C2 5.37591 3.17658 5.86568 3.86292 5.18001L6.68453 2.36112C7.35998 1.67544 6.88063 0.5 5.91104 0.5Z" fill="white"/>
<path d="M19.7824 23.95H22.068C22.5533 23.95 22.9504 23.5533 22.9504 23.0684V20.7851C22.9504 20.0005 21.9974 19.6038 21.4414 20.1592L19.1559 22.4425C18.6088 22.9979 18.9971 23.95 19.7824 23.95Z" fill="white"/>
</svg>
