<svg width="23" height="23" viewBox="0 0 23 23" fill="none" xmlns="http://www.w3.org/2000/svg">
<path d="M11.5 0.25C5.29 0.25 0.25 5.29 0.25 11.5C0.25 17.71 5.29 22.75 11.5 22.75C17.71 22.75 22.75 17.71 22.75 11.5C22.75 5.29 17.71 0.25 11.5 0.25ZM11.5 20.2188C6.69625 20.2188 2.78125 16.3037 2.78125 11.5C2.78125 9.97 3.18625 8.47375 3.94 7.1575C4.165 6.7525 4.6825 6.6175 5.0875 6.8425L11.9162 10.7688C12.3212 11.005 12.4562 11.5112 12.2312 11.9162C11.995 12.3212 11.4888 12.4562 11.0838 12.2312L5.02 8.755C4.66 9.62125 4.46875 10.555 4.46875 11.5C4.46875 15.3813 7.61875 18.5312 11.5 18.5312C15.3813 18.5312 18.5312 15.3813 18.5312 11.5C18.5312 7.61875 15.3813 4.46875 11.5 4.46875C9.97 4.46875 8.5075 4.9525 7.28125 5.875C6.91 6.15625 6.38125 6.0775 6.1 5.70625C5.81875 5.335 5.8975 4.80625 6.26875 4.525C7.7875 3.38875 9.59875 2.78125 11.5 2.78125C16.3037 2.78125 20.2188 6.69625 20.2188 11.5C20.2188 16.3037 16.3037 20.2188 11.5 20.2188Z" fill="white"/>
</svg>
