<svg width="27" height="28" viewBox="0 0 27 28" fill="none" xmlns="http://www.w3.org/2000/svg">
<path d="M24.75 3.245H2.25C1.78875 3.245 1.40625 2.8625 1.40625 2.40125C1.40625 1.94 1.78875 1.5575 2.25 1.5575H24.75C25.2112 1.5575 25.5938 1.94 25.5938 2.40125C25.5938 2.8625 25.2112 3.245 24.75 3.245Z" fill="white"/>
<path d="M18.7543 25.2837C18.608 25.5762 18.3043 25.745 18.0005 25.745C17.8768 25.745 17.7418 25.7112 17.6293 25.655L13.5005 23.5962L9.37178 25.655C9.25928 25.7112 9.12428 25.745 9.00053 25.745C8.69678 25.745 8.39303 25.5762 8.24678 25.2837C8.03303 24.8562 8.20178 24.35 8.62928 24.1475L12.6568 22.1337V19.2762H14.3443V22.1337L18.3718 24.1475C18.7993 24.35 18.968 24.8562 18.7543 25.2837Z" fill="white"/>
<path d="M3.375 2.40125V16.0137C3.375 18.1512 4.5 19.2762 6.6375 19.2762H20.3625C22.5 19.2762 23.625 18.1512 23.625 16.0137V2.40125H3.375ZM19.1025 9.80375L15.5587 12.7625C15.2325 13.0325 14.8162 13.145 14.4225 13.0775C14.0175 13.01 13.6688 12.7625 13.455 12.4025L12.2737 10.4337L8.9775 13.1787C8.82 13.3137 8.62875 13.37 8.4375 13.37C8.20125 13.37 7.95375 13.2687 7.785 13.0662C7.48125 12.7062 7.5375 12.1775 7.8975 11.8737L11.4413 8.915C11.7675 8.645 12.1838 8.5325 12.5775 8.6C12.9825 8.6675 13.3312 8.91499 13.545 9.27499L14.7263 11.2437L18.0225 8.49875C18.3825 8.195 18.9112 8.25125 19.215 8.61125C19.5075 8.97125 19.4625 9.5 19.1025 9.80375Z" fill="white"/>
</svg>
