<svg width="20" height="21" viewBox="0 0 20 21" fill="none" xmlns="http://www.w3.org/2000/svg">
<path d="M7.50033 1.81799C5.31699 1.81799 3.54199 3.59299 3.54199 5.77633C3.54199 7.91799 5.21699 9.65133 7.40033 9.72633C7.46699 9.71799 7.53366 9.71799 7.58366 9.72633C7.60033 9.72633 7.60866 9.72633 7.62533 9.72633C7.63366 9.72633 7.63366 9.72633 7.64199 9.72633C9.77533 9.65133 11.4503 7.91799 11.4587 5.77633C11.4587 3.59299 9.68366 1.81799 7.50033 1.81799Z" fill="black"/>
<path d="M11.7338 11.943C9.40879 10.393 5.61712 10.393 3.27546 11.943C2.21712 12.6514 1.63379 13.6097 1.63379 14.6347C1.63379 15.6597 2.21712 16.6097 3.26712 17.3097C4.43379 18.093 5.96712 18.4847 7.50046 18.4847C9.03379 18.4847 10.5671 18.093 11.7338 17.3097C12.7838 16.6014 13.3671 15.6514 13.3671 14.618C13.3588 13.593 12.7838 12.643 11.7338 11.943Z" fill="black"/>
<path d="M16.6588 6.26808C16.7921 7.88474 15.6421 9.30141 14.0505 9.49308C14.0421 9.49308 14.0421 9.49308 14.0338 9.49308H14.0088C13.9588 9.49308 13.9088 9.49308 13.8671 9.50974C13.0588 9.55141 12.3171 9.29308 11.7588 8.81808C12.6171 8.05141 13.1088 6.90141 13.0088 5.65141C12.9505 4.97641 12.7171 4.35974 12.3671 3.83474C12.6838 3.67641 13.0505 3.57641 13.4255 3.54308C15.0588 3.40141 16.5171 4.61808 16.6588 6.26808Z" fill="black"/>
<path d="M18.3249 13.9764C18.2582 14.7847 17.7415 15.4847 16.8749 15.9597C16.0415 16.4181 14.9915 16.6347 13.9499 16.6097C14.5499 16.0681 14.8999 15.3931 14.9665 14.6764C15.0499 13.6431 14.5582 12.6514 13.5749 11.8597C13.0165 11.4181 12.3665 11.0681 11.6582 10.8097C13.4999 10.2764 15.8165 10.6347 17.2415 11.7847C18.0082 12.4014 18.3999 13.1764 18.3249 13.9764Z" fill="black"/>
</svg>
