<svg width="20" height="21" viewBox="0 0 20 21" fill="none" xmlns="http://www.w3.org/2000/svg">
<path d="M12.4998 19.1097C12.2748 19.1097 12.0665 18.9847 11.9582 18.7931C11.8498 18.5931 11.8498 18.3597 11.9665 18.1597L12.8415 16.7014C13.0165 16.4014 13.4082 16.3097 13.6998 16.4847C13.9998 16.6597 14.0915 17.0431 13.9165 17.3431L13.6915 17.7181C15.9915 17.1764 17.7165 15.1097 17.7165 12.6431C17.7165 12.3014 17.9998 12.0181 18.3415 12.0181C18.6832 12.0181 18.9665 12.3014 18.9665 12.6431C18.9582 16.2097 16.0582 19.1097 12.4998 19.1097Z" fill="black"/>
<path d="M1.66699 8.27633C1.32533 8.27633 1.04199 7.99299 1.04199 7.65133C1.04199 4.09299 3.94199 1.19299 7.50033 1.19299C7.72533 1.19299 7.93366 1.31799 8.04199 1.50966C8.15032 1.70966 8.15033 1.94299 8.03366 2.14299L7.15866 3.60133C6.98366 3.89299 6.60033 3.99299 6.30033 3.80966C6.00866 3.63466 5.90866 3.25133 6.09199 2.95133L6.31699 2.57633C4.00866 3.11799 2.29199 5.18466 2.29199 7.65133C2.29199 7.99299 2.00866 8.27633 1.66699 8.27633Z" fill="black"/>
<path d="M12.3337 10.6763V13.1263C12.3337 15.168 11.517 15.9847 9.47533 15.9847H7.02533C4.98366 15.9847 4.16699 15.168 4.16699 13.1263V10.6763C4.16699 8.63466 4.98366 7.81799 7.02533 7.81799H9.47533C11.517 7.81799 12.3337 8.63466 12.3337 10.6763Z" fill="black"/>
<path d="M12.9748 4.31799H10.5248C8.51647 4.31799 7.6998 5.11799 7.6748 7.08466H9.4748C11.9248 7.08466 13.0581 8.22633 13.0581 10.668V12.468C15.0331 12.443 15.8248 11.6263 15.8248 9.61799V7.17633C15.8331 5.13466 15.0165 4.31799 12.9748 4.31799Z" fill="black"/>
</svg>
