<svg width="20" height="21" viewBox="0 0 20 21" fill="none" xmlns="http://www.w3.org/2000/svg">
<path d="M2.30866 8.48472C1.95033 8.48472 1.66699 8.20139 1.66699 7.84305V5.91805C1.66699 3.65972 3.50866 1.81805 5.76699 1.81805H7.69199C8.05032 1.81805 8.33366 2.10139 8.33366 2.45972C8.33366 2.81805 8.05032 3.10139 7.69199 3.10139H5.76699C4.20866 3.10139 2.95033 4.36805 2.95033 5.91805V7.84305C2.95033 8.20139 2.65866 8.48472 2.30866 8.48472Z" fill="white"/>
<path d="M17.692 8.48472C17.342 8.48472 17.0503 8.20139 17.0503 7.84305V5.91805C17.0503 4.35972 15.7837 3.10139 14.2337 3.10139H12.3087C11.9503 3.10139 11.667 2.80972 11.667 2.45972C11.667 2.10972 11.9503 1.81805 12.3087 1.81805H14.2337C16.492 1.81805 18.3337 3.65972 18.3337 5.91805V7.84305C18.3337 8.20139 18.0503 8.48472 17.692 8.48472Z" fill="white"/>
<path d="M14.2336 18.4847H13.0753C12.7253 18.4847 12.4336 18.2014 12.4336 17.843C12.4336 17.493 12.7169 17.2013 13.0753 17.2013H14.2336C15.7919 17.2013 17.0503 15.9347 17.0503 14.3847V13.2347C17.0503 12.8847 17.3336 12.593 17.6919 12.593C18.0419 12.593 18.3336 12.8764 18.3336 13.2347V14.3847C18.3336 16.643 16.4919 18.4847 14.2336 18.4847Z" fill="white"/>
<path d="M7.69199 18.4847H5.76699C3.50866 18.4847 1.66699 16.6431 1.66699 14.3847V12.4597C1.66699 12.1014 1.95033 11.8181 2.30866 11.8181C2.66699 11.8181 2.95033 12.1014 2.95033 12.4597V14.3847C2.95033 15.9431 4.21699 17.2014 5.76699 17.2014H7.69199C8.04199 17.2014 8.33366 17.4847 8.33366 17.8431C8.33366 18.2014 8.05032 18.4847 7.69199 18.4847Z" fill="white"/>
<path d="M15.3829 9.5097H14.2496H5.74961H4.61628C4.25794 9.5097 3.97461 9.80137 3.97461 10.1514C3.97461 10.5014 4.25794 10.793 4.61628 10.793H5.74961H14.2496H15.3829C15.7413 10.793 16.0246 10.5014 16.0246 10.1514C16.0246 9.80137 15.7413 9.5097 15.3829 9.5097Z" fill="white"/>
<path d="M5.75 11.768V12.043C5.75 13.4264 6.86667 14.543 8.25 14.543H11.75C13.1333 14.543 14.25 13.4264 14.25 12.043V11.768C14.25 11.668 14.175 11.593 14.075 11.593H5.925C5.825 11.593 5.75 11.668 5.75 11.768Z" fill="white"/>
<path d="M5.75 8.5347V8.2597C5.75 6.87637 6.86667 5.7597 8.25 5.7597H11.75C13.1333 5.7597 14.25 6.87637 14.25 8.2597V8.5347C14.25 8.6347 14.175 8.7097 14.075 8.7097H5.925C5.825 8.7097 5.75 8.6347 5.75 8.5347Z" fill="white"/>
</svg>
