<svg width="20" height="20" viewBox="0 0 20 20" fill="none" xmlns="http://www.w3.org/2000/svg">
<path d="M2.30841 8.33329C1.95008 8.33329 1.66675 8.04996 1.66675 7.69163V5.76663C1.66675 3.50829 3.50841 1.66663 5.76675 1.66663H7.69175C8.05008 1.66663 8.33341 1.94996 8.33341 2.30829C8.33341 2.66663 8.05008 2.94996 7.69175 2.94996H5.76675C4.20841 2.94996 2.95008 4.21663 2.95008 5.76663V7.69163C2.95008 8.04996 2.65841 8.33329 2.30841 8.33329Z" fill="#151515"/>
<path d="M17.6917 8.33329C17.3417 8.33329 17.0501 8.04996 17.0501 7.69163V5.76663C17.0501 4.20829 15.7834 2.94996 14.2334 2.94996H12.3084C11.9501 2.94996 11.6667 2.65829 11.6667 2.30829C11.6667 1.95829 11.9501 1.66663 12.3084 1.66663H14.2334C16.4917 1.66663 18.3334 3.50829 18.3334 5.76663V7.69163C18.3334 8.04996 18.0501 8.33329 17.6917 8.33329Z" fill="#151515"/>
<path d="M14.2333 18.3333H13.075C12.725 18.3333 12.4333 18.05 12.4333 17.6916C12.4333 17.3416 12.7167 17.05 13.075 17.05H14.2333C15.7917 17.05 17.05 15.7833 17.05 14.2333V13.0833C17.05 12.7333 17.3333 12.4417 17.6917 12.4417C18.0417 12.4417 18.3333 12.725 18.3333 13.0833V14.2333C18.3333 16.4917 16.4917 18.3333 14.2333 18.3333Z" fill="#151515"/>
<path d="M7.69175 18.3333H5.76675C3.50841 18.3333 1.66675 16.4916 1.66675 14.2333V12.3083C1.66675 11.95 1.95008 11.6666 2.30841 11.6666C2.66675 11.6666 2.95008 11.95 2.95008 12.3083V14.2333C2.95008 15.7916 4.21675 17.05 5.76675 17.05H7.69175C8.04175 17.05 8.33341 17.3333 8.33341 17.6916C8.33341 18.05 8.05008 18.3333 7.69175 18.3333Z" fill="#151515"/>
<path d="M15.3834 9.35828H14.2501H5.7501H4.61676C4.25843 9.35828 3.9751 9.64994 3.9751 9.99994C3.9751 10.3499 4.25843 10.6416 4.61676 10.6416H5.7501H14.2501H15.3834C15.7418 10.6416 16.0251 10.3499 16.0251 9.99994C16.0251 9.64994 15.7418 9.35828 15.3834 9.35828Z" fill="#151515"/>
<path d="M5.75 11.6167V11.8917C5.75 13.275 6.86667 14.3917 8.25 14.3917H11.75C13.1333 14.3917 14.25 13.275 14.25 11.8917V11.6167C14.25 11.5167 14.175 11.4417 14.075 11.4417H5.925C5.825 11.4417 5.75 11.5167 5.75 11.6167Z" fill="#151515"/>
<path d="M5.75 8.38328V8.10828C5.75 6.72494 6.86667 5.60828 8.25 5.60828H11.75C13.1333 5.60828 14.25 6.72494 14.25 8.10828V8.38328C14.25 8.48328 14.175 8.55828 14.075 8.55828H5.925C5.825 8.55828 5.75 8.48328 5.75 8.38328Z" fill="#151515"/>
</svg>
