<svg width="27" height="27" viewBox="0 0 27 27" fill="none" xmlns="http://www.w3.org/2000/svg">
<path d="M18.2137 2.25H8.78625C4.69125 2.25 2.25 4.69125 2.25 8.78625V18.2025C2.25 22.3087 4.69125 24.75 8.78625 24.75H18.2025C22.2975 24.75 24.7387 22.3087 24.7387 18.2137V8.78625C24.75 4.69125 22.3087 2.25 18.2137 2.25ZM9.5625 7.1775C10.7212 7.1775 11.6775 8.1225 11.6775 9.2925C11.6775 10.4625 10.7325 11.4075 9.5625 11.4075C8.3925 11.4075 7.4475 10.44 7.4475 9.28125C7.4475 8.1225 8.40375 7.1775 9.5625 7.1775ZM13.5 21.465C10.4737 21.465 8.01 19.0012 8.01 15.975C8.01 15.1875 8.65125 14.535 9.43875 14.535H17.5387C18.3262 14.535 18.9675 15.1762 18.9675 15.975C18.99 19.0012 16.5262 21.465 13.5 21.465ZM17.4375 11.385C16.2787 11.385 15.3225 10.44 15.3225 9.27C15.3225 8.1 16.2675 7.155 17.4375 7.155C18.6075 7.155 19.5525 8.1 19.5525 9.27C19.5525 10.44 18.5962 11.385 17.4375 11.385Z" fill="white"/>
</svg>
