<svg width="19" height="16" viewBox="0 0 19 16" fill="none" xmlns="http://www.w3.org/2000/svg">
<path fill-rule="evenodd" clip-rule="evenodd" d="M1.42767 7.02054C6.45238 4.83134 9.80298 3.38808 11.4795 2.69077C16.2661 0.699806 17.2608 0.353955 17.9091 0.342535C18.0516 0.340023 18.3705 0.37536 18.577 0.542931C18.7513 0.684424 18.7993 0.875561 18.8223 1.00971C18.8452 1.14386 18.8738 1.44946 18.8511 1.68825C18.5917 4.41373 17.4693 11.0277 16.8983 14.0803C16.6567 15.372 16.181 15.8051 15.7204 15.8474C14.7194 15.9396 13.9594 15.186 12.9899 14.5505C11.4729 13.556 10.6159 12.937 9.14336 11.9666C7.4416 10.8452 8.54478 10.2288 9.5146 9.2215C9.76841 8.95788 14.1786 4.94647 14.2639 4.58257C14.2746 4.53706 14.2845 4.36741 14.1837 4.27783C14.083 4.18825 13.9342 4.21889 13.8269 4.24325C13.6747 4.27778 11.2513 5.8796 6.55652 9.04871C5.86864 9.52107 5.24557 9.75122 4.68732 9.73916C4.0719 9.72586 2.88807 9.39119 2.00802 9.10511C0.928602 8.75424 0.0706999 8.56872 0.145404 7.97282C0.184314 7.66244 0.611737 7.34501 1.42767 7.02054Z" fill="white"/>
</svg>
