<svg width="20" height="20" viewBox="0 0 20 20" fill="none" xmlns="http://www.w3.org/2000/svg">
<path d="M13.4915 1.66669H6.50817C3.47484 1.66669 1.6665 3.47502 1.6665 6.50835V13.4834C1.6665 16.525 3.47484 18.3334 6.50817 18.3334H13.4832C16.5165 18.3334 18.3248 16.525 18.3248 13.4917V6.50835C18.3332 3.47502 16.5248 1.66669 13.4915 1.66669ZM14.0665 9.60835C14.0665 9.93335 13.8082 10.1917 13.4832 10.1917C13.1582 10.1917 12.8998 9.93335 12.8998 9.60835V9.45835L10.6332 11.725C10.5082 11.85 10.3415 11.9084 10.1665 11.8917C9.9915 11.875 9.83317 11.7834 9.7415 11.6334L8.8915 10.3667L6.90817 12.35C6.7915 12.4667 6.64984 12.5167 6.49984 12.5167C6.34984 12.5167 6.19984 12.4584 6.0915 12.35C5.8665 12.125 5.8665 11.7584 6.0915 11.525L8.57484 9.04169C8.69984 8.91669 8.8665 8.85835 9.0415 8.87502C9.2165 8.89169 9.37484 8.98335 9.4665 9.13335L10.3165 10.4L12.0748 8.64169H11.9248C11.5998 8.64169 11.3415 8.38335 11.3415 8.05835C11.3415 7.73335 11.5998 7.47502 11.9248 7.47502H13.4748C13.5498 7.47502 13.6248 7.49169 13.6998 7.51669C13.8415 7.57502 13.9582 7.69169 14.0165 7.83335C14.0498 7.90835 14.0582 7.98335 14.0582 8.05835V9.60835H14.0665Z" fill="black"/>
</svg>
