<svg width="23" height="23" viewBox="0 0 23 23" fill="none" xmlns="http://www.w3.org/2000/svg">
<path d="M16.2138 0.25H6.78625C2.69125 0.25 0.25 2.69125 0.25 6.78625V16.2025C0.25 20.3088 2.69125 22.75 6.78625 22.75H16.2025C20.2975 22.75 22.7387 20.3088 22.7387 16.2138V6.78625C22.75 2.69125 20.3088 0.25 16.2138 0.25ZM17.4175 9.205L14.8187 12.5575C14.4925 12.9737 14.0312 13.2438 13.5025 13.3C12.9737 13.3675 12.4562 13.2212 12.04 12.895L9.98125 11.275C9.9025 11.2075 9.8125 11.2075 9.7675 11.2188C9.7225 11.2188 9.64375 11.2413 9.57625 11.3313L6.89875 14.8075C6.73 15.0212 6.4825 15.1337 6.235 15.1337C6.055 15.1337 5.875 15.0775 5.7175 14.9537C5.34625 14.6725 5.27875 14.1438 5.56 13.7725L8.2375 10.2963C8.56375 9.88 9.025 9.61 9.55375 9.5425C10.0713 9.475 10.6 9.62125 11.0162 9.9475L13.075 11.5675C13.1537 11.635 13.2325 11.635 13.2888 11.6237C13.3338 11.6237 13.4125 11.6013 13.48 11.5113L16.0787 8.15875C16.36 7.7875 16.9 7.72 17.26 8.0125C17.6313 8.31625 17.6988 8.845 17.4175 9.205Z" fill="white"/>
</svg>
